HIERARCHY
ROOT Hips
{
	OFFSET 0.000000 0.000000 0.000000
	CHANNELS 6 Xposition Yposition Zposition Zrotation Yrotation Xrotation 
	JOINT LHipJoint
	{
		OFFSET 0.000000 0.000000 0.000000
		CHANNELS 3 Zrotation Yrotation Xrotation
		JOINT LeftUpLeg
		{
			OFFSET 1.363060 -1.794630 0.839290
			CHANNELS 3 Zrotation Yrotation Xrotation
			JOINT LeftLeg
			{
				OFFSET 2.448110 -6.726130 0.000000
				CHANNELS 3 Zrotation Yrotation Xrotation
				JOINT LeftFoot
				{
					OFFSET 2.562200 -7.039590 0.000000
					CHANNELS 3 Zrotation Yrotation Xrotation
					JOINT LeftToeBase
					{
						OFFSET 0.157640 -0.433110 2.322550
						CHANNELS 3 Zrotation Yrotation Xrotation
						End Site
						{
							OFFSET 0.000000 0.000000 0.000000
						}
					}
				}
			}
		}
	}
	JOINT RHipJoint
	{
		OFFSET 0.000000 0.000000 0.000000
		CHANNELS 3 Zrotation Yrotation Xrotation
		JOINT RightUpLeg
		{
			OFFSET -1.305520 -1.794630 0.839290
			CHANNELS 3 Zrotation Yrotation Xrotation
			JOINT RightLeg
			{
				OFFSET -2.542530 -6.985550 0.000000
				CHANNELS 3 Zrotation Yrotation Xrotation
				JOINT RightFoot
				{
					OFFSET -2.568260 -7.056230 0.000000
					CHANNELS 3 Zrotation Yrotation Xrotation
					JOINT RightToeBase
					{
						OFFSET -0.164730 -0.452590 2.363150
						CHANNELS 3 Zrotation Yrotation Xrotation
						End Site
						{
							OFFSET 0.000000 0.000000 0.000000
						}
					}
				}
			}
		}
	}
	JOINT LowerBack
	{
		OFFSET 0.000000 0.000000 0.000000
		CHANNELS 3 Zrotation Yrotation Xrotation
		JOINT Spine
		{
			OFFSET 0.028270 2.035590 -0.193380
			CHANNELS 3 Zrotation Yrotation Xrotation
			JOINT Spine1
			{
				OFFSET 0.056720 2.048850 -0.042750
				CHANNELS 3 Zrotation Yrotation Xrotation
				JOINT Neck
				{
					OFFSET 0.000000 0.000000 0.000000
					CHANNELS 3 Zrotation Yrotation Xrotation
					JOINT Neck1
					{
						OFFSET -0.054170 1.746240 0.172020
						CHANNELS 3 Zrotation Yrotation Xrotation
						JOINT Head
						{
							OFFSET 0.104070 1.761360 -0.123970
							CHANNELS 3 Zrotation Yrotation Xrotation
							End Site
							{
								OFFSET 0.000000 0.000000 0.000000
							}
						}
					}
				}
				JOINT LeftShoulder
				{
					OFFSET 0.000000 0.000000 0.000000
					CHANNELS 3 Zrotation Yrotation Xrotation
					JOINT LeftArm
					{
						OFFSET 3.362410 1.200890 -0.311210
						CHANNELS 3 Zrotation Yrotation Xrotation
						JOINT LeftForeArm
						{
							OFFSET 4.983000 -0.000000 -0.000000
							CHANNELS 3 Zrotation Yrotation Xrotation
							JOINT LeftHand
							{
								OFFSET 3.483560 -0.000000 -0.000000
								CHANNELS 3 Zrotation Yrotation Xrotation
								JOINT LeftFingerBase
								{
									OFFSET 0.000000 0.000000 0.000000
									CHANNELS 3 Zrotation Yrotation Xrotation
									JOINT LeftHandIndex1
									{
										OFFSET 0.715260 -0.000000 -0.000000
										CHANNELS 3 Zrotation Yrotation Xrotation
										End Site
										{
											OFFSET 0.000000 0.000000 0.000000
										}
									}
								}
								JOINT LThumb
								{
									OFFSET 0.000000 0.000000 0.000000
									CHANNELS 3 Zrotation Yrotation Xrotation
									End Site
									{
										OFFSET 0.000000 0.000000 0.000000
									}
								}
							}
						}
					}
				}
				JOINT RightShoulder
				{
					OFFSET 0.000000 0.000000 0.000000
					CHANNELS 3 Zrotation Yrotation Xrotation
					JOINT RightArm
					{
						OFFSET -3.136600 1.374050 -0.404650
						CHANNELS 3 Zrotation Yrotation Xrotation
						JOINT RightForeArm
						{
							OFFSET -5.241900 -0.000000 -0.000000
							CHANNELS 3 Zrotation Yrotation Xrotation
							JOINT RightHand
							{
								OFFSET -3.444170 -0.000000 -0.000000
								CHANNELS 3 Zrotation Yrotation Xrotation
								JOINT RightFingerBase
								{
									OFFSET 0.000000 0.000000 0.000000
									CHANNELS 3 Zrotation Yrotation Xrotation
									JOINT RightHandIndex1
									{
										OFFSET -0.622530 -0.000000 -0.000000
										CHANNELS 3 Zrotation Yrotation Xrotation
										End Site
										{
											OFFSET 0.000000 0.000000 0.000000
										}
									}
								}
								JOINT RThumb
								{
									OFFSET 0.000000 0.000000 0.000000
									CHANNELS 3 Zrotation Yrotation Xrotation
									End Site
									{
										OFFSET 0.000000 0.000000 0.000000
									}
								}
							}
						}
					}
				}
			}
		}
	}
}
MOTION
Frames: 12
Frame Time: 0.033333
-2.175518 16.754102 23.294992 1.199096 5.950981 10.124226 -5.835013 4.287490 -5.350280 -15.471167 -2.035155 -4.194906 -8.024584 -13.257965 -34.323868 0.318718 12.085596 26.118323 0.000000 0.000000 0.000000 14.625140 2.791576 -3.135494 -0.055935 -2.538953 -2.252508 3.584268 -27.651391 45.257723 14.480927 -22.130547 1.828322 0.000000 0.000000 0.000000 -6.902339 -1.349211 16.825584 4.136095 -1.203031 -6.125536 2.194348 -0.835829 -4.061544 -1.453328 0.483151 -2.937383 4.968270 -0.138300 5.551037 0.000000 0.000000 0.000000 10.025096 11.894117 7.295508 -71.796409 -6.323710 23.837500 -27.161351 -74.907190 0.546124 -0.126955 -15.422324 0.267728 -0.099090 -15.430520 0.000000 0.000000 0.000000 0.000000 0.000000 0.000000 0.000000 -6.621665 -16.122480 6.343812 69.372650 7.431320 16.571707 28.316648 62.949101 0.323015 0.681184 11.452136 0.160062 0.673477 11.456510 0.000000 0.000000 0.000000 0.000000 0.000000 0.000000 0.000000 
-2.189018 16.779296 23.490816 1.467807 5.822363 10.320069 -5.459686 4.161305 -5.707250 -16.176537 -1.744358 -3.575613 -7.729200 -12.965029 -33.613921 0.191279 11.065040 23.973593 0.000000 0.000000 0.000000 14.596422 2.664684 -2.833857 -0.136477 -2.438989 -2.335703 3.279727 -27.474201 45.125657 14.977671 -23.787842 4.105307 0.000000 0.000000 0.000000 -6.982889 -1.189048 16.991222 3.863221 -1.213569 -5.802758 2.108024 -0.750835 -4.576955 -1.823399 0.535305 -2.305516 5.065651 -0.180258 5.998886 0.000000 0.000000 0.000000 10.158939 12.298093 7.029041 -71.706513 -6.551966 24.428518 -28.316673 -74.311876 0.569881 -0.339990 -15.455822 0.279718 -0.315622 -15.464922 0.000000 0.000000 0.000000 0.000000 0.000000 0.000000 0.000000 -6.482382 -16.632729 5.941887 69.373473 7.029400 17.968568 27.655117 65.324708 0.351603 0.678432 11.777435 0.174213 0.671018 11.782188 0.000000 0.000000 0.000000 0.000000 0.000000 0.000000 0.000000 
-2.200480 16.807265 23.684956 1.728940 5.663271 10.515232 -5.096731 4.062898 -6.073861 -16.874265 -1.464812 -3.007145 -7.442928 -12.625864 -32.799085 0.086690 10.051882 21.785047 0.000000 0.000000 0.000000 14.591189 2.507240 -2.494858 -0.246009 -2.340668 -2.461423 2.959027 -27.262346 44.950684 15.413142 -25.433061 6.354550 0.000000 0.000000 0.000000 -7.084030 -1.028992 17.132892 3.637875 -1.216485 -5.534490 2.032872 -0.664710 -5.060369 -2.128219 0.584396 -1.709741 5.125030 -0.216043 6.371248 0.000000 0.000000 0.000000 10.252611 12.665339 6.791425 -71.627824 -6.758258 24.955359 -29.507898 -73.650475 0.591872 -0.550294 -15.481960 0.290829 -0.529321 -15.491881 0.000000 0.000000 0.000000 0.000000 0.000000 0.000000 0.000000 -6.353955 -17.110258 5.559894 69.339064 6.655470 19.186518 26.962820 67.360409 0.376152 0.665823 12.053464 0.186355 0.658626 12.058542 0.000000 0.000000 0.000000 0.000000 0.000000 0.000000 0.000000 
-2.208698 16.837489 23.876693 1.982985 5.476293 10.708128 -4.750370 3.994948 -6.446282 -17.560371 -1.199794 -2.493242 -7.180820 -12.242942 -31.881284 0.003251 9.053660 19.568050 0.000000 0.000000 0.000000 14.606355 2.318717 -2.120578 -0.384494 -2.243463 -2.628548 2.618043 -27.017738 44.741616 15.774560 -27.044032 8.560200 0.000000 0.000000 0.000000 -7.198972 -0.870627 17.247646 3.449991 -1.215540 -5.309042 1.965904 -0.579493 -5.513067 -2.381056 0.630912 -1.150487 5.159663 -0.246253 6.681560 0.000000 0.000000 0.000000 10.310132 13.003193 6.579238 -71.556424 -6.946312 25.414089 -30.733623 -72.918328 0.611982 -0.757207 -15.499327 0.301006 -0.739520 -15.509979 0.000000 0.000000 0.000000 0.000000 0.000000 0.000000 0.000000 -6.230507 -17.559630 5.204871 69.271427 6.314875 20.227415 26.298471 69.066464 0.396824 0.648998 12.283699 0.196572 0.641964 12.289051 0.000000 0.000000 0.000000 0.000000 0.000000 0.000000 0.000000 
-2.213662 16.869457 24.065364 2.229984 5.262504 10.897332 -4.423678 3.960611 -6.820313 -18.231676 -0.951883 -2.037298 -6.945974 -11.819261 -30.866326 -0.061231 8.075980 17.339566 0.000000 0.000000 0.000000 14.639184 2.098099 -1.713175 -0.551027 -2.145948 -2.835947 2.260495 -26.743895 44.504825 16.054431 -28.601345 10.707002 0.000000 0.000000 0.000000 -7.322864 -0.715484 17.332461 3.292803 -1.213532 -5.118059 1.905339 -0.497109 -5.935603 -2.591626 0.674663 -0.628833 5.178149 -0.271540 6.940079 0.000000 0.000000 0.000000 10.333421 13.318007 6.390152 -71.489256 -7.118193 25.799079 -31.993568 -72.108387 0.630007 -0.960078 -15.506172 0.310147 -0.945552 -15.517463 0.000000 0.000000 0.000000 0.000000 0.000000 0.000000 0.000000 -6.106387 -17.983430 4.884226 69.170116 6.012732 21.095763 25.714899 70.445964 0.413862 0.633799 12.470888 0.204991 0.626912 12.476466 0.000000 0.000000 0.000000 0.000000 0.000000 0.000000 0.000000 
-2.218288 16.900344 24.246962 2.462145 5.059291 11.063352 -4.122924 3.915424 -7.183626 -18.854115 -0.703186 -1.593470 -6.712547 -11.394415 -29.871281 -0.104042 7.168639 15.215571 0.000000 0.000000 0.000000 14.705087 1.938485 -1.335943 -0.751267 -2.118581 -2.979080 1.915700 -26.488984 44.220720 16.265910 -30.091243 12.741757 0.000000 0.000000 0.000000 -7.473023 -0.589505 17.415851 3.171658 -1.209820 -4.975156 1.867334 -0.435713 -6.256189 -2.749308 0.713116 -0.222993 5.188910 -0.290927 7.141221 0.000000 0.000000 0.000000 10.383596 13.537970 6.251472 -71.454183 -7.267412 26.110438 -32.606563 -71.749955 0.642235 -1.066855 -15.525373 0.316308 -1.054074 -15.537038 0.000000 0.000000 0.000000 0.000000 0.000000 0.000000 0.000000 -6.041694 -18.308045 4.591546 69.131550 5.751035 21.853116 25.080540 71.739050 0.428465 0.603183 12.637976 0.212192 0.596285 12.643732 0.000000 0.000000 0.000000 0.000000 0.000000 0.000000 0.000000 
-2.222120 16.929600 24.421250 2.679295 4.865004 11.205752 -3.849451 3.856232 -7.532185 -19.422337 -0.451247 -1.157326 -6.487732 -10.975985 -28.916450 -0.129500 6.337089 13.210287 0.000000 0.000000 0.000000 14.802815 1.842438 -0.990152 -0.982757 -2.157090 -3.056163 1.581213 -26.257531 43.899818 16.404485 -31.496750 14.661687 0.000000 0.000000 0.000000 -7.647433 -0.495897 17.493856 3.082511 -1.204656 -4.874802 1.851309 -0.397123 -6.470615 -2.861828 0.745744 0.061363 5.196298 -0.305094 7.291797 0.000000 0.000000 0.000000 10.465880 13.661447 6.163321 -71.450425 -7.386471 26.374039 -32.532709 -71.900372 0.649277 -1.076317 -15.562887 0.319788 -1.063880 -15.574704 0.000000 0.000000 0.000000 0.000000 0.000000 0.000000 0.000000 -6.034597 -18.529606 4.329899 69.162120 5.536587 22.493290 24.408711 72.940661 0.440529 0.557703 12.783896 0.218125 0.550625 12.789779 0.000000 0.000000 0.000000 0.000000 0.000000 0.000000 0.000000 
-2.225587 16.956892 24.587706 2.881009 4.677533 11.325501 -3.604202 3.781094 -7.862714 -19.932419 -0.194909 -0.727599 -6.270338 -10.570374 -28.019911 -0.141581 5.584674 11.337298 0.000000 0.000000 0.000000 14.929746 1.808719 -0.676387 -1.240597 -2.254477 -3.069769 1.259168 -26.053428 43.551224 16.470560 -32.805037 16.464318 0.000000 0.000000 0.000000 -7.843021 -0.435500 17.563937 3.021064 -1.197845 -4.811345 1.855930 -0.381480 -6.581483 -2.936409 0.771964 0.226250 5.202941 -0.314812 7.398759 0.000000 0.000000 0.000000 10.582310 13.693652 6.123444 -71.475979 -7.476912 26.581436 -31.773876 -72.551390 0.650808 -0.988457 -15.615882 0.320428 -0.974941 -15.627625 0.000000 0.000000 0.000000 0.000000 0.000000 0.000000 0.000000 -6.081268 -18.650288 4.100519 69.262771 5.372197 23.017677 23.711505 74.051557 0.450106 0.498550 12.908833 0.222817 0.491124 12.914790 0.000000 0.000000 0.000000 0.000000 0.000000 0.000000 0.000000 
-2.229245 16.981762 24.746180 3.067057 4.495892 11.421801 -3.386164 3.685584 -8.172007 -20.381846 0.069235 -0.296863 -6.057265 -10.185654 -27.204735 -0.143489 4.914470 9.607345 0.000000 0.000000 0.000000 15.085685 1.843029 -0.397278 -1.522966 -2.409444 -3.014624 0.951701 -25.883072 43.180470 16.466222 -34.006994 18.152696 0.000000 0.000000 0.000000 -8.060990 -0.411126 17.623779 2.986047 -1.188865 -4.783718 1.882114 -0.391125 -6.582746 -2.975387 0.790018 0.263325 5.210487 -0.320364 7.463873 0.000000 0.000000 0.000000 10.737360 13.633462 6.134504 -71.532073 -7.546252 26.677920 -30.271799 -73.702536 0.644700 -0.789562 -15.674393 0.317157 -0.773264 -15.685741 0.000000 0.000000 0.000000 0.000000 0.000000 0.000000 0.000000 -6.183385 -18.663451 3.908114 69.439509 5.263950 23.421630 22.999953 75.068192 0.457127 0.426270 13.011963 0.226233 0.418321 13.017938 0.000000 0.000000 0.000000 0.000000 0.000000 0.000000 0.000000 
-2.230111 17.006682 24.900655 3.245202 4.288168 11.517460 -3.189354 3.617932 -8.472476 -20.806136 0.317742 0.083242 -5.877273 -9.782705 -26.347372 -0.140731 4.272617 7.911297 0.000000 0.000000 0.000000 15.244835 1.846269 -0.095231 -1.814414 -2.545116 -2.998631 0.634733 -25.700561 42.815938 16.380378 -35.105613 19.778789 0.000000 0.000000 0.000000 -8.273903 -0.392521 17.654157 2.959118 -1.181702 -4.762746 1.910727 -0.404432 -6.571825 -3.008655 0.804205 0.282120 5.216796 -0.324734 7.514634 0.000000 0.000000 0.000000 10.870258 13.581671 6.154345 -71.585251 -7.611709 26.688869 -28.831143 -74.745205 0.636260 -0.590577 -15.715170 0.312734 -0.571404 -15.726023 0.000000 0.000000 0.000000 0.000000 0.000000 0.000000 0.000000 -6.265261 -18.671237 3.751912 69.580800 5.196424 23.715232 22.447170 75.827581 0.462110 0.368095 13.086525 0.228651 0.359715 13.092499 0.000000 0.000000 0.000000 0.000000 0.000000 0.000000 0.000000 
-2.228488 17.031621 25.051437 3.415426 4.052233 11.611785 -3.012536 3.580720 -8.762448 -21.207316 0.550069 0.413199 -5.726965 -9.361998 -25.448194 -0.134040 3.656346 6.248143 0.000000 0.000000 0.000000 15.405810 1.817221 0.230283 -2.114617 -2.659183 -3.021635 0.310591 -25.506500 42.458261 16.213803 -36.096332 21.351398 0.000000 0.000000 0.000000 -8.482118 -0.380120 17.652692 2.940486 -1.177406 -4.749020 1.942790 -0.422478 -6.546658 -3.037231 0.813578 0.280132 5.222113 -0.327944 7.550532 0.000000 0.000000 0.000000 10.979104 13.540019 6.183292 -71.635808 -7.669495 26.623470 -27.463039 -75.683484 0.626010 -0.394296 -15.740254 0.307425 -0.372234 -15.750527 0.000000 0.000000 0.000000 0.000000 0.000000 0.000000 0.000000 -6.322928 -18.672323 3.638206 69.680846 5.172621 23.903236 22.083804 76.314533 0.465269 0.328723 13.133153 0.230182 0.320058 13.139121 0.000000 0.000000 0.000000 0.000000 0.000000 0.000000 0.000000 
-2.224940 17.056546 25.199077 3.577946 3.788452 11.704442 -2.854197 3.574063 -9.041595 -21.587599 0.766665 0.695581 -5.599894 -8.923917 -24.508032 -0.123708 3.061979 4.615548 0.000000 0.000000 0.000000 15.567421 1.756750 0.578072 -2.422426 -2.751573 -3.081038 -0.017450 -25.302344 42.106301 15.971477 -36.982240 22.879190 0.000000 0.000000 0.000000 -8.685814 -0.373830 17.619961 2.929640 -1.176439 -4.742438 1.978707 -0.445587 -6.507073 -3.062182 0.817817 0.257220 5.226652 -0.330096 7.572312 0.000000 0.000000 0.000000 11.064344 13.508879 6.220939 -71.684115 -7.717788 26.492860 -26.169903 -76.526984 0.614417 -0.202382 -15.751996 0.301462 -0.177470 -15.761619 0.000000 0.000000 0.000000 0.000000 0.000000 0.000000 0.000000 -6.355413 -18.666377 3.567890 69.738661 5.191139 23.996425 21.916031 76.538099 0.466875 0.309878 13.154231 0.230961 0.301098 13.160196 0.000000 0.000000 0.000000 0.000000 0.000000 0.000000 0.000000 
